<?xml version="1.0" encoding="UTF-8" standalone="no"?>
<svg
   id="Layer_1"
   data-name="Layer 1"
   viewBox="0 0 500 500"
   version="1.1"
   sodipodi:docname="sharptask.svg"
   inkscape:version="1.4.2 (ebf0e940, 2025-05-08)"
   inkscape:export-filename="sharptask.png"
   inkscape:export-xdpi="96"
   inkscape:export-ydpi="96"
   width="500"
   height="500"
   xmlns:inkscape="http://www.inkscape.org/namespaces/inkscape"
   xmlns:sodipodi="http://sodipodi.sourceforge.net/DTD/sodipodi-0.dtd"
   xmlns="http://www.w3.org/2000/svg"
   xmlns:svg="http://www.w3.org/2000/svg"
   xmlns:rdf="http://www.w3.org/1999/02/22-rdf-syntax-ns#"
   xmlns:cc="http://creativecommons.org/ns#"
   xmlns:dc="http://purl.org/dc/elements/1.1/">
  <sodipodi:namedview
     id="namedview8"
     pagecolor="#ffffff"
     bordercolor="#000000"
     borderopacity="0.25"
     inkscape:showpageshadow="2"
     inkscape:pageopacity="0.0"
     inkscape:pagecheckerboard="0"
     inkscape:deskcolor="#d1d1d1"
     inkscape:zoom="0.69734035"
     inkscape:cx="376.43025"
     inkscape:cy="206.49888"
     inkscape:window-width="1440"
     inkscape:window-height="847"
     inkscape:window-x="0"
     inkscape:window-y="25"
     inkscape:window-maximized="1"
     inkscape:current-layer="Layer_1" />
  <defs
     id="defs1">
    <style
       id="style1">.cls-1{fill:#90d1d7;}.cls-2{fill:#c6ccda;}.cls-3{fill:#aeb4c6;}.cls-4{fill:#39426a;}.cls-5{fill:#abd9e6;}.cls-6{fill:#77cacb;}</style>
  </defs>
  <title
     id="title1">scalpel, knife, blade, cut, surgery, medical, healthcare</title>
  <path
     class="cls-1"
     d="M 321.66649,209.94093 308.03242,149.58968 59.408985,441.72123 a 24.74885,24.74885 0 0 0 2.806971,34.88741 v 0 a 24.74885,24.74885 0 0 0 34.887419,-2.80697 z"
     id="path1"
     style="stroke-width:6.18721" />
  <path
     class="cls-2"
     d="m 421.91787,92.145946 -30.27592,35.574074 c -9.08797,10.71174 -19.85314,19.8786 -31.87592,27.14396 -11.98043,7.28586 -22.71329,16.44811 -31.78869,27.13694 -3.35273,3.98811 -6.48996,8.15253 -9.39858,12.47523 l -0.36096,0.42408 v 0 l -9.03958,-38.16064 14.83721,-17.43366 c 5.4809,-6.43219 10.23019,-13.4534 14.16052,-20.93443 3.97378,-7.45361 8.73675,-14.45876 14.20764,-20.894331 L 420.31397,17.65933 c 10.15263,8.841416 15.99713,21.633217 16.03512,35.095954 0.17522,14.454354 -4.9598,28.470498 -14.43126,39.390668 z"
     id="path2"
     sodipodi:nodetypes="cccccccccccccc"
     style="fill:#cdb3fa;fill-opacity:1;stroke-width:6.18721" />
  <path
     class="cls-3"
     d="m 407.78247,80.115784 -94.2363,110.727276 -5.03456,-34.75209 14.7971,-17.38654 a 136.11867,136.11867 0 0 0 14.53746,-20.61362 141.56342,141.56342 0 0 1 14.53747,-20.613634 L 408.2838,31.794703 a 28.337431,28.337431 0 0 1 9.57495,22.448276 40.711857,40.711857 0 0 1 -10.07628,25.872805 z"
     id="path3"
     style="fill:#9f6bf3;fill-opacity:1;stroke-width:6.18721" />
  <circle
     class="cls-4"
     cx="356.27942"
     cy="297.88351"
     id="circle3"
     transform="rotate(40.4)"
     r="6.1872125"
     style="stroke-width:6.18721" />
  <path
     class="cls-4"
     d="M 396.35375,131.73008 426.62967,96.155989 A 65.213217,65.213217 0 0 0 442.44955,52.747327 53.33377,53.33377 0 0 0 424.3242,12.947571 6.1872122,6.1872122 0 0 0 415.60235,13.649312 L 347.67184,93.46712 a 126.96159,126.96159 0 0 0 -14.95552,21.96401 106.11069,106.11069 0 0 1 -13.41263,19.86476 l -8.02012,9.4236 a 6.1872122,6.1872122 0 0 0 -2.00301,-0.89226 6.1872122,6.1872122 0 0 0 -5.95993,1.75238 L 54.697176,437.71117 a 30.936067,30.936067 0 0 0 47.117994,40.10056 l 224.5631,-263.86076 a 6.1872122,6.1872122 0 0 0 1.32331,-5.37346 l -2.7268,-12.07025 a 117.55703,117.55703 0 0 1 7.7354,-10.23462 124.17735,124.17735 0 0 1 30.21576,-25.95698 135.06684,135.06684 0 0 0 33.42781,-28.58556 z M 314.74914,208.52235 92.391585,469.79161 A 18.56164,18.56164 0 0 1 64.120789,445.73127 L 304.72411,163.02334 Z m 71.98051,-84.57678 a 123.74424,123.74424 0 0 1 -30.21577,25.95697 138.16045,138.16045 0 0 0 -33.34757,28.49135 c -0.64155,0.75392 -1.3233,1.55492 -2.00505,2.35588 l -5.19298,-22.53748 12.71187,-14.9364 a 122.69242,122.69242 0 0 0 14.9485,-22.05123 110.00863,110.00863 0 0 1 13.46677,-19.73743 l 63.59949,-74.729134 a 41.083089,41.083089 0 0 1 9.4737,26.099407 52.529432,52.529432 0 0 1 -12.96255,35.278369 z"
     id="path4"
     style="stroke-width:6.18721" />
  <path
     class="cls-5"
     d="m 268.13227,253.75061 a 6.1872122,6.1872122 0 0 1 -8.72185,0.70173 l -18.8472,-16.04022 8.02011,-9.42359 18.8472,16.04022 a 6.1872122,6.1872122 0 0 1 0.70174,8.72186 z"
     id="path5"
     style="stroke-width:6.18721" />
  <path
     class="cls-5"
     d="m 284.17249,234.9034 a 6.1872122,6.1872122 0 0 1 -8.72184,0.70175 l -18.84719,-16.04023 8.0201,-9.4236 18.84719,16.04023 a 6.1872122,6.1872122 0 0 1 0.70174,8.72185 z"
     id="path6"
     style="stroke-width:6.18721" />
  <path
     class="cls-5"
     d="m 300.21272,216.0562 a 6.1872122,6.1872122 0 0 1 -8.72186,0.70176 l -18.8472,-16.04022 8.02012,-9.42361 18.84718,16.04022 a 6.1872122,6.1872122 0 0 1 0.70176,8.72185 z"
     id="path7"
     style="stroke-width:6.18721" />
  <path
     class="cls-6"
     d="m 202.56789,311.69568 a 6.1872122,6.1872122 0 0 1 0.70176,8.72184 L 103.01826,438.21251 a 6.1872163,6.1872163 0 0 1 -9.423603,-8.02012 L 193.84606,312.39743 a 6.1872122,6.1872122 0 0 1 8.72183,-0.70175 z"
     id="path8"
     style="stroke-width:6.18721" />
  <metadata
     id="metadata8">
    <rdf:RDF>
      <cc:Work
         rdf:about="">
        <dc:title>scalpel, knife, blade, cut, surgery, medical, healthcare</dc:title>
      </cc:Work>
    </rdf:RDF>
  </metadata>
</svg>
